<?xml version="1.0" encoding="UTF-8" standalone="no"?>
<!-- Created with Inkscape (http://www.inkscape.org/) -->

<svg
   width="1024mm"
   height="1024mm"
   viewBox="0 0 1024 1024"
   version="1.1"
   id="svg1"
   sodipodi:docname="vrOS_logo.svg"
   inkscape:version="1.4.2 (f4327f4, 2025-05-13)"
   inkscape:export-filename="..\catnet-stt\assets\vrOS.png"
   inkscape:export-xdpi="50.799999"
   inkscape:export-ydpi="50.799999"
   xml:space="preserve"
   xmlns:inkscape="http://www.inkscape.org/namespaces/inkscape"
   xmlns:sodipodi="http://sodipodi.sourceforge.net/DTD/sodipodi-0.dtd"
   xmlns:xlink="http://www.w3.org/1999/xlink"
   xmlns="http://www.w3.org/2000/svg"
   xmlns:svg="http://www.w3.org/2000/svg"
   xmlns:rdf="http://www.w3.org/1999/02/22-rdf-syntax-ns#"
   xmlns:cc="http://creativecommons.org/ns#"
   xmlns:dc="http://purl.org/dc/elements/1.1/"><defs
     id="defs1"><linearGradient
       id="linearGradient27"
       inkscape:collect="always"><stop
         style="stop-color:#00f3ff;stop-opacity:1;"
         offset="0"
         id="stop26" /><stop
         style="stop-color:#46ebf8;stop-opacity:0.49803922;"
         offset="0.5"
         id="stop28" /><stop
         style="stop-color:#8ce3f2;stop-opacity:0;"
         offset="1"
         id="stop27" /></linearGradient><inkscape:path-effect
       effect="powerstroke"
       message=""
       id="path-effect13"
       is_visible="true"
       lpeversion="1.3"
       scale_width="1"
       interpolator_type="CentripetalCatmullRom"
       interpolator_beta="0.75"
       start_linecap_type="round"
       end_linecap_type="round"
       offset_points="4.94124,24.804687"
       linejoin_type="spiro"
       miter_limit="4"
       not_jump="true"
       sort_points="true" /><inkscape:path-effect
       effect="simplify"
       id="path-effect12"
       is_visible="true"
       lpeversion="1.3"
       threshold="0.046153846"
       steps="1"
       smooth_angles="0"
       helper_size="0"
       simplify_individual_paths="false"
       simplify_just_coalesce="false"
       step="1" /><inkscape:path-effect
       effect="powerstroke"
       message=""
       id="path-effect11"
       is_visible="true"
       lpeversion="1.3"
       scale_width="1"
       interpolator_type="CentripetalCatmullRom"
       interpolator_beta="0.75"
       start_linecap_type="round"
       end_linecap_type="round"
       offset_points="8.3151607,24.804687"
       linejoin_type="spiro"
       miter_limit="4"
       not_jump="true"
       sort_points="true" /><inkscape:path-effect
       effect="simplify"
       id="path-effect10"
       is_visible="true"
       lpeversion="1.3"
       threshold="0.046153846"
       steps="1"
       smooth_angles="0"
       helper_size="0"
       simplify_individual_paths="false"
       simplify_just_coalesce="false"
       step="1" /><inkscape:path-effect
       effect="powerstroke"
       message=""
       id="path-effect9"
       is_visible="true"
       lpeversion="1.3"
       scale_width="1"
       interpolator_type="CentripetalCatmullRom"
       interpolator_beta="0.75"
       start_linecap_type="round"
       end_linecap_type="round"
       offset_points="10.858197,24.804687"
       linejoin_type="spiro"
       miter_limit="4"
       not_jump="true"
       sort_points="true" /><inkscape:path-effect
       effect="simplify"
       id="path-effect8"
       is_visible="true"
       lpeversion="1.3"
       threshold="0.046153846"
       steps="1"
       smooth_angles="0"
       helper_size="0"
       simplify_individual_paths="false"
       simplify_just_coalesce="false"
       step="1" /><linearGradient
       id="swatch42"><stop
         style="stop-color:#ffffff;stop-opacity:0.27927929;"
         offset="0"
         id="stop42" /></linearGradient><linearGradient
       id="linearGradient20"
       inkscape:collect="always"><stop
         style="stop-color:#41e0ff;stop-opacity:1;"
         offset="0"
         id="stop19" /><stop
         style="stop-color:#ff39e6;stop-opacity:1;"
         offset="1"
         id="stop20" /></linearGradient><color-profile
       name="sRGB-IEC61966-2.1"
       xlink:href="../../../WINDOWS/system32/spool/drivers/color/sRGB%20Color%20Space%20Profile.icm"
       id="color-profile3" /><color-profile
       name="Agfa-:-Swop-Standard"
       xlink:href="../../../WINDOWS/system32/spool/drivers/color/RSWOP.icm"
       id="color-profile4" /><linearGradient
       inkscape:collect="always"
       xlink:href="#linearGradient20"
       id="linearGradient19"
       gradientUnits="userSpaceOnUse"
       gradientTransform="matrix(-1.1593197,-0.03545648,-0.07319866,1.2183431,1060.9841,-31.558825)"
       x1="0.77797395"
       y1="454.20441"
       x2="883.78851"
       y2="469.7337" /><linearGradient
       inkscape:collect="always"
       xlink:href="#linearGradient27"
       id="linearGradient26"
       gradientUnits="userSpaceOnUse"
       x1="695.94128"
       y1="184.39958"
       x2="246.8398"
       y2="809.9845"
       gradientTransform="rotate(-5.8953634,465.80848,417.03999)" /></defs><sodipodi:namedview
     id="base"
     pagecolor="#565656"
     bordercolor="#000000"
     borderopacity="0.34117647"
     inkscape:pageopacity="0.0"
     inkscape:pageshadow="2"
     inkscape:zoom="0.15999999"
     inkscape:cx="1940.6251"
     inkscape:cy="2065.6251"
     inkscape:document-units="mm"
     inkscape:showpageshadow="0"
     inkscape:pagecheckerboard="0"
     inkscape:deskcolor="#505050"
     inkscape:window-width="1688"
     inkscape:window-height="1219"
     inkscape:window-x="717"
     inkscape:window-y="2455"
     inkscape:window-maximized="0"
     inkscape:current-layer="svg1" /><metadata
     id="metadata1"><rdf:RDF><cc:Work
         rdf:about=""><dc:format>image/svg+xml</dc:format><dc:type
           rdf:resource="http://purl.org/dc/dcmitype/StillImage" /></cc:Work></rdf:RDF></metadata><g
     inkscape:groupmode="layer"
     id="layer1"
     inkscape:label="tail_sweep"
     style="display:none"><path
       id="path13"
       style="fill:url(#linearGradient19);fill-opacity:1;stroke:none;stroke-width:54.2258;stroke-dasharray:none"
       d="m 510.63653,3.9041545 c -76.05464,0 -150.36099,17.0404735 -217.80738,49.0037275 C 217.86419,24.883738 151.98982,7.3653967 94.250101,22.911032 65.659017,30.608793 115.56222,104.51411 89.480034,201.13884 39.188163,292.60586 2.0644735,428.61401 2.0644735,512.47673 c 0,134.87213 53.5878045,264.24626 148.9567965,359.61526 95.369,95.369 224.74313,148.95681 359.61526,148.95681 134.87213,0 264.24626,-53.58781 359.61526,-148.95681 95.369,-95.369 144.17531,-224.82793 148.95731,-359.61526 2.8672,-80.81589 -13.5168,-207.97229 -95.4795,-313.90693 C 907.30215,110.07687 954.67878,38.109207 922.71487,26.821324 866.62729,7.0142976 795.25052,27.629708 719.8577,48.571372 651.92837,16.048484 587.37701,3.9041545 510.63653,3.9041545 Z m 0,50.2775515 c 121.55668,0 238.10935,48.278564 324.06291,134.232114 85.95355,85.95356 134.23005,202.50623 134.23005,324.06291 0,121.55668 -48.2765,238.10884 -134.23005,324.06239 -85.95356,85.95356 -202.50623,134.23057 -324.06291,134.23057 -121.55668,0 -238.10884,-48.27701 -324.06239,-134.23057 C 100.62058,750.58557 52.342025,634.03341 52.342025,512.47673 52.342025,390.92005 100.62058,274.36738 186.57414,188.41382 272.52769,102.46027 389.07985,54.181706 510.63653,54.181706 Z"
       sodipodi:nodetypes="scscssssscscssssssssss" /><path
       style="fill:#a08cf2;stroke:none;stroke-width:15.1606;stroke-linejoin:bevel;stroke-opacity:0.255034;paint-order:stroke fill markers"
       d="M 464.89747,107.56899 C 223.57656,253.28582 340.60965,454.94675 518.28239,517.16725 690.81562,577.58792 790.65791,681.98595 730.08418,802.52187 687.72509,886.81243 593.50644,939.8119 371.77903,950.97806 515.80404,994.35777 662.52129,975.98705 787.85586,881.83701 913.17301,787.70004 980.81979,551.59709 780.35589,423.98582 573.72054,292.4459 433.49413,340.60606 464.89747,107.56899 Z"
       id="path14"
       sodipodi:nodetypes="csscssc" /></g><path
     id="rect8"
     style="display:none;fill:none;stroke:#00d6ff;stroke-width:14.9;stroke-linejoin:bevel;stroke-opacity:0.250464;paint-order:stroke fill markers"
     transform="rotate(-19.793098)"
     d="M -32.896736,586.01752 H 333.5935 v 379.3948 H -32.896736 Z M -76.833199,544.20605 H 289.65704 V 923.60086 H -76.833199 Z M -117.03036,505.953 h 366.49024 v 379.39481 h -366.49024 z" /><g
     inkscape:groupmode="layer"
     id="layer5"
     inkscape:label="stars"
     style="display:none"><path
       id="path20"
       style="display:inline;opacity:1;fill:#ffffff;fill-opacity:1;fill-rule:evenodd;stroke-width:30.1943;stroke-linecap:round;stroke-linejoin:round;stroke-opacity:0.250464;paint-order:stroke fill markers"
       d="m 591.93186,896.26251 c 0,0 -10.67439,-85.5125 -39.43192,-113.29818 -28.75755,-27.78564 -114.58636,-35.51502 -114.58636,-35.51502 0,0 85.5125,-10.67439 113.29817,-39.43194 27.78566,-28.75752 35.51503,-114.58634 35.51503,-114.58634 0,0 10.6744,85.51249 39.43193,113.29816 28.75754,27.78566 114.58635,35.51504 114.58635,35.51504 0,0 -85.51249,10.6744 -113.29817,39.43193 -27.78565,28.75754 -35.51503,114.58635 -35.51503,114.58635 z"
       sodipodi:nodetypes="cacacacac" /><path
       id="path21"
       style="display:inline;opacity:0.3;fill:#ecf28c;fill-opacity:0.517625;fill-rule:evenodd;stroke-width:30.1943;stroke-linecap:round;stroke-linejoin:round;stroke-opacity:0.250464;paint-order:stroke fill markers"
       d="m 260.41146,597.97038 c 0,0 -44.53502,-73.77644 -82.10823,-87.46195 -37.57321,-13.68548 -119.124647,14.16577 -119.124647,14.16577 0,0 73.776437,-44.53502 87.461937,-82.10824 13.6855,-37.5732 -14.16576,-119.12464 -14.16576,-119.12464 0,0 44.53502,73.77643 82.10823,87.46193 37.57321,13.6855 119.12465,-14.16575 119.12465,-14.16575 0,0 -73.77643,44.53502 -87.46194,82.10823 -13.68549,37.57321 14.16576,119.12465 14.16576,119.12465 z"
       sodipodi:nodetypes="cacacacac" /></g><g
     inkscape:groupmode="layer"
     id="layer4"
     inkscape:label="main"
     style="display:inline"><path
       id="path25"
       style="display:inline;opacity:1;fill:url(#linearGradient26);fill-rule:evenodd;stroke-width:55.0039;stroke-linecap:round;stroke-linejoin:round;stroke-opacity:0.250464;paint-order:stroke fill markers"
       d="M 559.33582,180.7495 716.81769,264.92398 355.44131,787.53522 291.32655,749.35037 Z"
       sodipodi:nodetypes="ccccc"
       inkscape:label="light_ray" /><path
       id="path18"
       style="display:inline;fill:url(#linearGradient19);fill-opacity:1;stroke:none;stroke-width:54.2258;stroke-dasharray:none"
       d="m 510.63653,3.9041545 c -76.05464,0 -150.36099,17.0404735 -217.80738,49.0037275 C 217.86419,24.883738 151.98978,7.3656277 94.250061,22.911263 65.658977,30.609024 115.562,104.5139 89.47981,201.13863 39.187939,292.60565 2.0644735,428.61401 2.0644735,512.47673 c 0,134.87213 53.5878105,264.24626 148.9567965,359.61526 95.369,95.369 224.74313,148.95681 359.61526,148.95681 134.87213,0 264.24626,-53.58781 359.61526,-148.95681 95.369,-95.369 144.17531,-224.82793 148.95731,-359.61526 2.8672,-80.81589 -13.5167,-207.9723 -95.47944,-313.90694 C 907.30221,110.07686 954.67865,38.108985 922.71474,26.821102 866.62716,7.0140754 795.25069,27.629531 719.85787,48.571195 651.92854,16.048307 587.37701,3.9041545 510.63653,3.9041545 Z m 0,50.2775515 c 121.55668,0 238.10935,48.278564 324.06291,134.232114 85.95355,85.95356 134.23005,202.50623 134.23005,324.06291 0,120.84633 -47.71367,236.74648 -132.72678,322.5524 C 926.79837,724.16345 952.95715,533.86042 780.35599,423.98601 573.72064,292.44609 433.49438,340.60621 464.89772,107.56914 223.57681,253.28597 340.60984,454.9469 518.28258,517.1674 690.81581,577.58807 790.65785,681.98615 730.08412,802.52207 688.03213,886.20154 594.8701,939.0417 376.58167,950.72853 305.49979,928.98471 240.10318,890.06817 186.57414,836.53912 100.62058,750.58557 52.342025,634.03341 52.342025,512.47673 52.342025,390.92005 100.62058,274.36738 186.57414,188.41382 272.52769,102.46027 389.07985,54.181706 510.63653,54.181706 Z M 25.896611,787.96896 A 20.6633,20.6633 0 0 0 5.2343058,808.63281 v 108.8378 c 0,56.72342 46.3100882,103.03349 103.0335042,103.03349 h 96.78479 a 20.6633,20.6633 0 0 0 20.6623,-20.66435 20.6633,20.6633 0 0 0 -20.6623,-20.66179 h -96.78479 c -34.543316,0 -61.707345,-27.16403 -61.707345,-61.70735 V 808.63281 A 20.6633,20.6633 0 0 0 25.896611,787.96896 Z m 972.246079,0 a 20.6633,20.6633 0 0 0 -20.66437,20.66385 v 108.8378 c 0,34.54332 -27.1635,61.70735 -61.70683,61.70735 h -87.29493 a 20.6633,20.6633 0 0 0 -20.66385,20.66179 20.6633,20.6633 0 0 0 20.66385,20.66435 h 87.29493 c 56.72342,0 103.03301,-46.31006 103.03301,-103.03349 v -108.8378 a 20.6633,20.6633 0 0 0 -20.66181,-20.66385 z"
       inkscape:label="logo_frame" /><path
       id="path17"
       style="display:none;opacity:1;fill:#ffffff;fill-opacity:1;fill-rule:evenodd;stroke-width:30.1943;stroke-linecap:round;stroke-linejoin:round;stroke-opacity:0.250464;paint-order:stroke fill markers"
       d="m 260.41146,597.97038 c 0,0 -44.53502,-73.77644 -82.10823,-87.46195 -37.57321,-13.68548 -119.124647,14.16577 -119.124647,14.16577 0,0 73.776437,-44.53502 87.461937,-82.10824 13.6855,-37.5732 -14.16576,-119.12464 -14.16576,-119.12464 0,0 44.53502,73.77643 82.10823,87.46193 37.57321,13.6855 119.12465,-14.16575 119.12465,-14.16575 0,0 -73.77643,44.53502 -87.46194,82.10823 -13.68549,37.57321 14.16576,119.12465 14.16576,119.12465 z"
       sodipodi:nodetypes="cacacacac"
       inkscape:label="star_high" /><path
       id="path19"
       style="display:none;opacity:1;fill:#ffffff;fill-opacity:1;fill-rule:evenodd;stroke-width:22.2801;stroke-linecap:round;stroke-linejoin:round;stroke-opacity:0.250464;paint-order:stroke fill markers"
       d="m 574.71325,879.72605 c 0,0 -7.87653,-63.09886 -29.09644,-83.60165 -21.21992,-20.50276 -84.55219,-26.2062 -84.55219,-26.2062 0,0 63.09886,-7.87653 83.60165,-29.09646 20.50277,-21.2199 26.2062,-84.55217 26.2062,-84.55217 0,0 7.87654,63.09886 29.09645,83.60164 21.21991,20.50277 84.55218,26.20621 84.55218,26.20621 0,0 -63.09886,7.87654 -83.60165,29.09645 -20.50276,21.21991 -26.2062,84.55218 -26.2062,84.55218 z"
       sodipodi:nodetypes="cacacacac"
       inkscape:label="star_low" /></g></svg>
